<svg width="40" height="40" viewBox="0 0 40 40" fill="none" xmlns="http://www.w3.org/2000/svg">
<path d="M26.6673 18.7493V15.666C26.6673 14.2659 26.6673 13.5658 26.3948 13.031C26.1552 12.5606 25.7727 12.1782 25.3023 11.9385C24.7675 11.666 24.0674 11.666 22.6673 11.666H17.334C15.9339 11.666 15.2338 11.666 14.699 11.9385C14.2286 12.1782 13.8462 12.5606 13.6065 13.031C13.334 13.5658 13.334 14.2659 13.334 15.666V24.3327C13.334 25.7328 13.334 26.4329 13.6065 26.9677C13.8462 27.4381 14.2286 27.8205 14.699 28.0602C15.2338 28.3327 15.9339 28.3327 17.334 28.3327H20.0007M25.0007 27.4993V22.4993M22.5007 24.9993H27.5007" stroke="#0037FF" stroke-width="1.66667" stroke-linecap="round" stroke-linejoin="round"/>
</svg>
