<svg width="40" height="40" viewBox="0 0 40 40" fill="none" xmlns="http://www.w3.org/2000/svg">
<rect width="40" height="40" rx="20" fill="#F2F3FF"/>
<path d="M21.6673 11.8906V15.3327C21.6673 15.7995 21.6673 16.0328 21.7581 16.2111C21.838 16.3679 21.9655 16.4954 22.1223 16.5752C22.3006 16.6661 22.5339 16.6661 23.0007 16.6661H26.4428M17.5007 23.3327L19.1673 24.9993L22.9173 21.2493M21.6673 11.666H17.334C15.9339 11.666 15.2338 11.666 14.699 11.9385C14.2286 12.1782 13.8462 12.5606 13.6065 13.031C13.334 13.5658 13.334 14.2659 13.334 15.666V24.3327C13.334 25.7328 13.334 26.4329 13.6065 26.9677C13.8462 27.4381 14.2286 27.8205 14.699 28.0602C15.2338 28.3327 15.9339 28.3327 17.334 28.3327H22.6673C24.0674 28.3327 24.7675 28.3327 25.3023 28.0602C25.7727 27.8205 26.1552 27.4381 26.3948 26.9677C26.6673 26.4329 26.6673 25.7328 26.6673 24.3327V16.666L21.6673 11.666Z" stroke="#0037FF" stroke-width="1.66667" stroke-linecap="round" stroke-linejoin="round"/>
</svg>
