<svg width="40" height="40" viewBox="0 0 40 40" fill="none" xmlns="http://www.w3.org/2000/svg">
<rect width="40" height="40" rx="20" fill="#FEE4E2"/>
<path d="M23.3333 14.9993V14.3327C23.3333 13.3993 23.3333 12.9326 23.1517 12.576C22.9919 12.2624 22.7369 12.0075 22.4233 11.8477C22.0668 11.666 21.6001 11.666 20.6667 11.666H19.3333C18.3999 11.666 17.9332 11.666 17.5767 11.8477C17.2631 12.0075 17.0081 12.2624 16.8483 12.576C16.6667 12.9326 16.6667 13.3993 16.6667 14.3327V14.9993M18.3333 19.5827V23.7493M21.6667 19.5827V23.7493M12.5 14.9993H27.5M25.8333 14.9993V24.3327C25.8333 25.7328 25.8333 26.4329 25.5608 26.9677C25.3212 27.4381 24.9387 27.8205 24.4683 28.0602C23.9335 28.3327 23.2335 28.3327 21.8333 28.3327H18.1667C16.7665 28.3327 16.0665 28.3327 15.5317 28.0602C15.0613 27.8205 14.6788 27.4381 14.4392 26.9677C14.1667 26.4329 14.1667 25.7328 14.1667 24.3327V14.9993" stroke="#D92D20" stroke-width="2" stroke-linecap="round" stroke-linejoin="round"/>
</svg>
