<svg width="179" height="33" viewBox="0 0 179 33" fill="none" xmlns="http://www.w3.org/2000/svg">
<g clip-path="url(#clip0_10_18805)">
<path d="M-1 24.2727V1H3.21591V20.7386H13.4659V24.2727H-1ZM21.9659 24.625C20.8598 24.625 19.8636 24.428 18.9772 24.0341C18.0984 23.6325 17.4015 23.0416 16.8863 22.2613C16.3787 21.481 16.125 20.5189 16.125 19.375C16.125 18.3901 16.3068 17.5757 16.6704 16.9318C17.034 16.2879 17.5303 15.7727 18.159 15.3863C18.7878 15 19.4962 14.7083 20.284 14.5113C21.0795 14.3068 21.9015 14.1591 22.75 14.0682C23.7727 13.9621 24.6022 13.8674 25.2386 13.7841C25.875 13.6932 26.3371 13.5568 26.625 13.375C26.9204 13.1856 27.0681 12.8939 27.0681 12.5V12.4318C27.0681 11.5757 26.8143 10.9129 26.3068 10.4432C25.7992 9.97349 25.0681 9.73864 24.1136 9.73864C23.106 9.73864 22.3068 9.95834 21.7159 10.3977C21.1325 10.8371 20.7386 11.356 20.534 11.9545L16.6931 11.4091C16.9962 10.3485 17.4962 9.46212 18.1931 8.75C18.8901 8.0303 19.7424 7.49243 20.75 7.13637C21.7575 6.77273 22.8712 6.59091 24.0909 6.59091C24.9318 6.59091 25.7689 6.6894 26.6022 6.88637C27.4356 7.08334 28.1969 7.40909 28.8863 7.86364C29.5757 8.31061 30.1287 8.92046 30.5454 9.69318C30.9697 10.4659 31.1818 11.4318 31.1818 12.5909V24.2727H27.2272V21.875H27.0909C26.8409 22.3598 26.4886 22.8144 26.034 23.2386C25.5871 23.6553 25.0227 23.9924 24.3409 24.25C23.6666 24.5 22.875 24.625 21.9659 24.625ZM23.034 21.6022C23.8598 21.6022 24.5757 21.4394 25.1818 21.1136C25.7878 20.7803 26.2537 20.3409 26.5795 19.7954C26.9128 19.25 27.0795 18.6553 27.0795 18.0113V15.9545C26.9507 16.0606 26.731 16.1591 26.4204 16.25C26.1174 16.3409 25.7765 16.4204 25.3977 16.4886C25.0189 16.5568 24.6439 16.6174 24.2727 16.6704C23.9015 16.7235 23.5795 16.7689 23.3068 16.8068C22.6931 16.8901 22.1439 17.0265 21.659 17.2159C21.1742 17.4053 20.7916 17.6704 20.5113 18.0113C20.231 18.3447 20.0909 18.7765 20.0909 19.3068C20.0909 20.0644 20.3674 20.6363 20.9204 21.0227C21.4734 21.4091 22.178 21.6022 23.034 21.6022ZM39.4318 14.0454V24.2727H35.3181V6.81818H39.25V9.78409H39.4545C39.856 8.80682 40.4962 8.03031 41.375 7.45455C42.2613 6.87879 43.356 6.59091 44.659 6.59091C45.8636 6.59091 46.9128 6.84849 47.8068 7.36364C48.7083 7.87879 49.4053 8.625 49.8977 9.60228C50.3977 10.5795 50.6439 11.7651 50.6363 13.1591V24.2727H46.5227V13.7954C46.5227 12.6288 46.2197 11.7159 45.6136 11.0568C45.0151 10.3977 44.1856 10.0682 43.125 10.0682C42.4053 10.0682 41.7651 10.2273 41.2045 10.5454C40.6515 10.856 40.2159 11.3068 39.8977 11.8977C39.5871 12.4886 39.4318 13.2045 39.4318 14.0454ZM62.409 31.1818C60.9318 31.1818 59.6628 30.981 58.6022 30.5795C57.5416 30.1856 56.6893 29.6553 56.0454 28.9886C55.4015 28.3219 54.9545 27.5833 54.7045 26.7727L58.409 25.875C58.5757 26.2159 58.8181 26.553 59.1363 26.8863C59.4545 27.2272 59.8825 27.5075 60.4204 27.7272C60.9659 27.9545 61.6515 28.0682 62.4772 28.0682C63.6439 28.0682 64.6098 27.7841 65.375 27.2159C66.1401 26.6553 66.5227 25.731 66.5227 24.4432V21.1363H66.3181C66.106 21.5606 65.7954 21.9962 65.3863 22.4432C64.9848 22.8901 64.4507 23.2651 63.784 23.5682C63.125 23.8712 62.2954 24.0227 61.2954 24.0227C59.9545 24.0227 58.7386 23.7083 57.6477 23.0795C56.5643 22.4432 55.7007 21.4962 55.0568 20.2386C54.4204 18.9735 54.1022 17.3901 54.1022 15.4886C54.1022 13.5719 54.4204 11.9545 55.0568 10.6363C55.7007 9.31061 56.5681 8.30682 57.659 7.625C58.75 6.93561 59.9659 6.59091 61.3068 6.59091C62.3295 6.59091 63.1704 6.76515 63.8295 7.11364C64.4962 7.45455 65.0265 7.86743 65.4204 8.35228C65.8143 8.82955 66.1136 9.28031 66.3181 9.70455H66.5454V6.81818H70.6022V24.5568C70.6022 26.0492 70.2462 27.2841 69.534 28.2613C68.8219 29.2386 67.8484 29.9697 66.6136 30.4545C65.3787 30.9394 63.9772 31.1818 62.409 31.1818ZM62.4431 20.7954C63.3143 20.7954 64.0568 20.5833 64.6704 20.1591C65.284 19.7348 65.75 19.125 66.0681 18.3295C66.3863 17.5341 66.5454 16.5795 66.5454 15.4659C66.5454 14.3674 66.3863 13.4053 66.0681 12.5795C65.7575 11.7538 65.2954 11.1136 64.6818 10.6591C64.0757 10.197 63.3295 9.96591 62.4431 9.96591C61.5265 9.96591 60.7613 10.2045 60.1477 10.6818C59.534 11.1591 59.0719 11.8144 58.7613 12.6477C58.4507 13.4735 58.2954 14.4129 58.2954 15.4659C58.2954 16.5341 58.4507 17.4697 58.7613 18.2727C59.0795 19.0682 59.5454 19.6894 60.159 20.1363C60.7803 20.5757 61.5416 20.7954 62.4431 20.7954ZM85.9431 16.9318V6.81818H90.0568V24.2727H86.0681V21.1704H85.8863C85.4924 22.1477 84.8447 22.9469 83.9431 23.5682C83.0492 24.1894 81.9469 24.5 80.6363 24.5C79.4924 24.5 78.481 24.2462 77.6022 23.7386C76.731 23.2235 76.0492 22.4772 75.5568 21.5C75.0643 20.5151 74.8181 19.3257 74.8181 17.9318V6.81818H78.9318V17.2954C78.9318 18.4015 79.2348 19.2803 79.8409 19.9318C80.4469 20.5833 81.2424 20.9091 82.2272 20.9091C82.8333 20.9091 83.4204 20.7613 83.9886 20.4659C84.5568 20.1704 85.0227 19.731 85.3863 19.1477C85.7575 18.5568 85.9431 17.8182 85.9431 16.9318ZM99.3095 24.625C98.2036 24.625 97.2073 24.428 96.321 24.0341C95.4422 23.6325 94.7452 23.0416 94.2301 22.2613C93.7225 21.481 93.4687 20.5189 93.4687 19.375C93.4687 18.3901 93.6505 17.5757 94.0142 16.9318C94.3778 16.2879 94.874 15.7727 95.5028 15.3863C96.1316 15 96.8399 14.7083 97.6278 14.5113C98.4233 14.3068 99.2455 14.1591 100.094 14.0682C101.117 13.9621 101.946 13.8674 102.583 13.7841C103.219 13.6932 103.681 13.5568 103.969 13.375C104.265 13.1856 104.412 12.8939 104.412 12.5V12.4318C104.412 11.5757 104.159 10.9129 103.651 10.4432C103.143 9.97349 102.412 9.73864 101.458 9.73864C100.45 9.73864 99.6505 9.95834 99.0595 10.3977C98.4763 10.8371 98.0823 11.356 97.8778 11.9545L94.0369 11.4091C94.3399 10.3485 94.8399 9.46212 95.5369 8.75C96.2339 8.0303 97.0861 7.49243 98.0937 7.13637C99.1015 6.77273 100.215 6.59091 101.435 6.59091C102.276 6.59091 103.113 6.6894 103.946 6.88637C104.78 7.08334 105.541 7.40909 106.231 7.86364C106.92 8.31061 107.473 8.92046 107.89 9.69318C108.314 10.4659 108.526 11.4318 108.526 12.5909V24.2727H104.571V21.875H104.435C104.185 22.3598 103.833 22.8144 103.378 23.2386C102.931 23.6553 102.367 23.9924 101.685 24.25C101.011 24.5 100.219 24.625 99.3095 24.625ZM100.378 21.6022C101.204 21.6022 101.92 21.4394 102.526 21.1136C103.132 20.7803 103.598 20.3409 103.924 19.7954C104.257 19.25 104.424 18.6553 104.424 18.0113V15.9545C104.295 16.0606 104.075 16.1591 103.765 16.25C103.462 16.3409 103.121 16.4204 102.742 16.4886C102.363 16.5568 101.988 16.6174 101.617 16.6704C101.246 16.7235 100.924 16.7689 100.651 16.8068C100.037 16.8901 99.4875 17.0265 99.0025 17.2159C98.5179 17.4053 98.1354 17.6704 97.8551 18.0113C97.5748 18.3447 97.4346 18.7765 97.4346 19.3068C97.4346 20.0644 97.7111 20.6363 98.2642 21.0227C98.8175 21.4091 99.5215 21.6022 100.378 21.6022ZM120.253 31.1818C118.776 31.1818 117.507 30.981 116.446 30.5795C115.386 30.1856 114.534 29.6553 113.89 28.9886C113.246 28.3219 112.799 27.5833 112.549 26.7727L116.253 25.875C116.42 26.2159 116.662 26.553 116.981 26.8863C117.299 27.2272 117.727 27.5075 118.265 27.7272C118.81 27.9545 119.496 28.0682 120.321 28.0682C121.488 28.0682 122.454 27.7841 123.219 27.2159C123.984 26.6553 124.367 25.731 124.367 24.4432V21.1363H124.162C123.95 21.5606 123.64 21.9962 123.231 22.4432C122.829 22.8901 122.295 23.2651 121.628 23.5682C120.969 23.8712 120.14 24.0227 119.14 24.0227C117.799 24.0227 116.583 23.7083 115.492 23.0795C114.409 22.4432 113.545 21.4962 112.901 20.2386C112.265 18.9735 111.946 17.3901 111.946 15.4886C111.946 13.5719 112.265 11.9545 112.901 10.6363C113.545 9.31061 114.412 8.30682 115.503 7.625C116.594 6.93561 117.81 6.59091 119.151 6.59091C120.174 6.59091 121.015 6.76515 121.674 7.11364C122.34 7.45455 122.871 7.86743 123.265 8.35228C123.659 8.82955 123.958 9.28031 124.162 9.70455H124.39V6.81818H128.446V24.5568C128.446 26.0492 128.09 27.2841 127.378 28.2613C126.666 29.2386 125.693 29.9697 124.458 30.4545C123.223 30.9394 121.821 31.1818 120.253 31.1818ZM120.287 20.7954C121.159 20.7954 121.901 20.5833 122.515 20.1591C123.128 19.7348 123.594 19.125 123.912 18.3295C124.231 17.5341 124.39 16.5795 124.39 15.4659C124.39 14.3674 124.231 13.4053 123.912 12.5795C123.602 11.7538 123.14 11.1136 122.526 10.6591C121.92 10.197 121.174 9.96591 120.287 9.96591C119.371 9.96591 118.606 10.2045 117.992 10.6818C117.378 11.1591 116.916 11.8144 116.606 12.6477C116.295 13.4735 116.14 14.4129 116.14 15.4659C116.14 16.5341 116.295 17.4697 116.606 18.2727C116.924 19.0682 117.39 19.6894 118.003 20.1363C118.625 20.5757 119.386 20.7954 120.287 20.7954ZM140.39 24.6136C138.64 24.6136 137.128 24.25 135.856 23.5227C134.59 22.7879 133.617 21.75 132.935 20.4091C132.253 19.0606 131.912 17.4735 131.912 15.6477C131.912 13.8522 132.253 12.2765 132.935 10.9204C133.625 9.55682 134.587 8.49621 135.821 7.73864C137.056 6.97349 138.507 6.59091 140.174 6.59091C141.25 6.59091 142.265 6.76515 143.219 7.11364C144.181 7.45455 145.03 7.98485 145.765 8.70455C146.507 9.42424 147.09 10.3409 147.515 11.4545C147.939 12.5606 148.151 13.8788 148.151 15.4091V16.6704H133.844V13.8977H144.208C144.2 13.1098 144.03 12.4091 143.696 11.7954C143.363 11.1742 142.897 10.6856 142.299 10.3295C141.708 9.97349 141.018 9.79546 140.231 9.79546C139.39 9.79546 138.651 10 138.015 10.4091C137.378 10.8106 136.882 11.3409 136.526 12C136.178 12.6515 136 13.3674 135.992 14.1477V16.5682C135.992 17.5833 136.178 18.4545 136.549 19.1818C136.92 19.9015 137.439 20.4545 138.106 20.8409C138.772 21.2197 139.553 21.4091 140.446 21.4091C141.045 21.4091 141.587 21.3257 142.071 21.1591C142.556 20.9848 142.977 20.731 143.333 20.3977C143.689 20.0644 143.958 19.6515 144.14 19.1591L147.981 19.5909C147.738 20.606 147.276 21.4924 146.594 22.25C145.92 23 145.056 23.5833 144.003 24C142.95 24.4091 141.746 24.6136 140.39 24.6136Z" fill="black"/>
<path d="M-1 24.2727V1H3.21591V20.7386H13.4659V24.2727H-1ZM21.9659 24.625C20.8598 24.625 19.8636 24.428 18.9772 24.0341C18.0984 23.6325 17.4015 23.0416 16.8863 22.2613C16.3787 21.481 16.125 20.5189 16.125 19.375C16.125 18.3901 16.3068 17.5757 16.6704 16.9318C17.034 16.2879 17.5303 15.7727 18.159 15.3863C18.7878 15 19.4962 14.7083 20.284 14.5113C21.0795 14.3068 21.9015 14.1591 22.75 14.0682C23.7727 13.9621 24.6022 13.8674 25.2386 13.7841C25.875 13.6932 26.3371 13.5568 26.625 13.375C26.9204 13.1856 27.0681 12.8939 27.0681 12.5V12.4318C27.0681 11.5757 26.8143 10.9129 26.3068 10.4432C25.7992 9.97349 25.0681 9.73864 24.1136 9.73864C23.106 9.73864 22.3068 9.95834 21.7159 10.3977C21.1325 10.8371 20.7386 11.356 20.534 11.9545L16.6931 11.4091C16.9962 10.3485 17.4962 9.46212 18.1931 8.75C18.8901 8.0303 19.7424 7.49243 20.75 7.13637C21.7575 6.77273 22.8712 6.59091 24.0909 6.59091C24.9318 6.59091 25.7689 6.6894 26.6022 6.88637C27.4356 7.08334 28.1969 7.40909 28.8863 7.86364C29.5757 8.31061 30.1287 8.92046 30.5454 9.69318C30.9697 10.4659 31.1818 11.4318 31.1818 12.5909V24.2727H27.2272V21.875H27.0909C26.8409 22.3598 26.4886 22.8144 26.034 23.2386C25.5871 23.6553 25.0227 23.9924 24.3409 24.25C23.6666 24.5 22.875 24.625 21.9659 24.625ZM23.034 21.6022C23.8598 21.6022 24.5757 21.4394 25.1818 21.1136C25.7878 20.7803 26.2537 20.3409 26.5795 19.7954C26.9128 19.25 27.0795 18.6553 27.0795 18.0113V15.9545C26.9507 16.0606 26.731 16.1591 26.4204 16.25C26.1174 16.3409 25.7765 16.4204 25.3977 16.4886C25.0189 16.5568 24.6439 16.6174 24.2727 16.6704C23.9015 16.7235 23.5795 16.7689 23.3068 16.8068C22.6931 16.8901 22.1439 17.0265 21.659 17.2159C21.1742 17.4053 20.7916 17.6704 20.5113 18.0113C20.231 18.3447 20.0909 18.7765 20.0909 19.3068C20.0909 20.0644 20.3674 20.6363 20.9204 21.0227C21.4734 21.4091 22.178 21.6022 23.034 21.6022ZM39.4318 14.0454V24.2727H35.3181V6.81818H39.25V9.78409H39.4545C39.856 8.80682 40.4962 8.03031 41.375 7.45455C42.2613 6.87879 43.356 6.59091 44.659 6.59091C45.8636 6.59091 46.9128 6.84849 47.8068 7.36364C48.7083 7.87879 49.4053 8.625 49.8977 9.60228C50.3977 10.5795 50.6439 11.7651 50.6363 13.1591V24.2727H46.5227V13.7954C46.5227 12.6288 46.2197 11.7159 45.6136 11.0568C45.0151 10.3977 44.1856 10.0682 43.125 10.0682C42.4053 10.0682 41.7651 10.2273 41.2045 10.5454C40.6515 10.856 40.2159 11.3068 39.8977 11.8977C39.5871 12.4886 39.4318 13.2045 39.4318 14.0454ZM62.409 31.1818C60.9318 31.1818 59.6628 30.981 58.6022 30.5795C57.5416 30.1856 56.6893 29.6553 56.0454 28.9886C55.4015 28.3219 54.9545 27.5833 54.7045 26.7727L58.409 25.875C58.5757 26.2159 58.8181 26.553 59.1363 26.8863C59.4545 27.2272 59.8825 27.5075 60.4204 27.7272C60.9659 27.9545 61.6515 28.0682 62.4772 28.0682C63.6439 28.0682 64.6098 27.7841 65.375 27.2159C66.1401 26.6553 66.5227 25.731 66.5227 24.4432V21.1363H66.3181C66.106 21.5606 65.7954 21.9962 65.3863 22.4432C64.9848 22.8901 64.4507 23.2651 63.784 23.5682C63.125 23.8712 62.2954 24.0227 61.2954 24.0227C59.9545 24.0227 58.7386 23.7083 57.6477 23.0795C56.5643 22.4432 55.7007 21.4962 55.0568 20.2386C54.4204 18.9735 54.1022 17.3901 54.1022 15.4886C54.1022 13.5719 54.4204 11.9545 55.0568 10.6363C55.7007 9.31061 56.5681 8.30682 57.659 7.625C58.75 6.93561 59.9659 6.59091 61.3068 6.59091C62.3295 6.59091 63.1704 6.76515 63.8295 7.11364C64.4962 7.45455 65.0265 7.86743 65.4204 8.35228C65.8143 8.82955 66.1136 9.28031 66.3181 9.70455H66.5454V6.81818H70.6022V24.5568C70.6022 26.0492 70.2462 27.2841 69.534 28.2613C68.8219 29.2386 67.8484 29.9697 66.6136 30.4545C65.3787 30.9394 63.9772 31.1818 62.409 31.1818ZM62.4431 20.7954C63.3143 20.7954 64.0568 20.5833 64.6704 20.1591C65.284 19.7348 65.75 19.125 66.0681 18.3295C66.3863 17.5341 66.5454 16.5795 66.5454 15.4659C66.5454 14.3674 66.3863 13.4053 66.0681 12.5795C65.7575 11.7538 65.2954 11.1136 64.6818 10.6591C64.0757 10.197 63.3295 9.96591 62.4431 9.96591C61.5265 9.96591 60.7613 10.2045 60.1477 10.6818C59.534 11.1591 59.0719 11.8144 58.7613 12.6477C58.4507 13.4735 58.2954 14.4129 58.2954 15.4659C58.2954 16.5341 58.4507 17.4697 58.7613 18.2727C59.0795 19.0682 59.5454 19.6894 60.159 20.1363C60.7803 20.5757 61.5416 20.7954 62.4431 20.7954ZM85.9431 16.9318V6.81818H90.0568V24.2727H86.0681V21.1704H85.8863C85.4924 22.1477 84.8447 22.9469 83.9431 23.5682C83.0492 24.1894 81.9469 24.5 80.6363 24.5C79.4924 24.5 78.481 24.2462 77.6022 23.7386C76.731 23.2235 76.0492 22.4772 75.5568 21.5C75.0643 20.5151 74.8181 19.3257 74.8181 17.9318V6.81818H78.9318V17.2954C78.9318 18.4015 79.2348 19.2803 79.8409 19.9318C80.4469 20.5833 81.2424 20.9091 82.2272 20.9091C82.8333 20.9091 83.4204 20.7613 83.9886 20.4659C84.5568 20.1704 85.0227 19.731 85.3863 19.1477C85.7575 18.5568 85.9431 17.8182 85.9431 16.9318ZM99.3095 24.625C98.2036 24.625 97.2073 24.428 96.321 24.0341C95.4422 23.6325 94.7452 23.0416 94.2301 22.2613C93.7225 21.481 93.4687 20.5189 93.4687 19.375C93.4687 18.3901 93.6505 17.5757 94.0142 16.9318C94.3778 16.2879 94.874 15.7727 95.5028 15.3863C96.1316 15 96.8399 14.7083 97.6278 14.5113C98.4233 14.3068 99.2455 14.1591 100.094 14.0682C101.117 13.9621 101.946 13.8674 102.583 13.7841C103.219 13.6932 103.681 13.5568 103.969 13.375C104.265 13.1856 104.412 12.8939 104.412 12.5V12.4318C104.412 11.5757 104.159 10.9129 103.651 10.4432C103.143 9.97349 102.412 9.73864 101.458 9.73864C100.45 9.73864 99.6505 9.95834 99.0595 10.3977C98.4763 10.8371 98.0823 11.356 97.8778 11.9545L94.0369 11.4091C94.3399 10.3485 94.8399 9.46212 95.5369 8.75C96.2339 8.0303 97.0861 7.49243 98.0937 7.13637C99.1015 6.77273 100.215 6.59091 101.435 6.59091C102.276 6.59091 103.113 6.6894 103.946 6.88637C104.78 7.08334 105.541 7.40909 106.231 7.86364C106.92 8.31061 107.473 8.92046 107.89 9.69318C108.314 10.4659 108.526 11.4318 108.526 12.5909V24.2727H104.571V21.875H104.435C104.185 22.3598 103.833 22.8144 103.378 23.2386C102.931 23.6553 102.367 23.9924 101.685 24.25C101.011 24.5 100.219 24.625 99.3095 24.625ZM100.378 21.6022C101.204 21.6022 101.92 21.4394 102.526 21.1136C103.132 20.7803 103.598 20.3409 103.924 19.7954C104.257 19.25 104.424 18.6553 104.424 18.0113V15.9545C104.295 16.0606 104.075 16.1591 103.765 16.25C103.462 16.3409 103.121 16.4204 102.742 16.4886C102.363 16.5568 101.988 16.6174 101.617 16.6704C101.246 16.7235 100.924 16.7689 100.651 16.8068C100.037 16.8901 99.4875 17.0265 99.0025 17.2159C98.5179 17.4053 98.1354 17.6704 97.8551 18.0113C97.5748 18.3447 97.4346 18.7765 97.4346 19.3068C97.4346 20.0644 97.7111 20.6363 98.2642 21.0227C98.8175 21.4091 99.5215 21.6022 100.378 21.6022ZM120.253 31.1818C118.776 31.1818 117.507 30.981 116.446 30.5795C115.386 30.1856 114.534 29.6553 113.89 28.9886C113.246 28.3219 112.799 27.5833 112.549 26.7727L116.253 25.875C116.42 26.2159 116.662 26.553 116.981 26.8863C117.299 27.2272 117.727 27.5075 118.265 27.7272C118.81 27.9545 119.496 28.0682 120.321 28.0682C121.488 28.0682 122.454 27.7841 123.219 27.2159C123.984 26.6553 124.367 25.731 124.367 24.4432V21.1363H124.162C123.95 21.5606 123.64 21.9962 123.231 22.4432C122.829 22.8901 122.295 23.2651 121.628 23.5682C120.969 23.8712 120.14 24.0227 119.14 24.0227C117.799 24.0227 116.583 23.7083 115.492 23.0795C114.409 22.4432 113.545 21.4962 112.901 20.2386C112.265 18.9735 111.946 17.3901 111.946 15.4886C111.946 13.5719 112.265 11.9545 112.901 10.6363C113.545 9.31061 114.412 8.30682 115.503 7.625C116.594 6.93561 117.81 6.59091 119.151 6.59091C120.174 6.59091 121.015 6.76515 121.674 7.11364C122.34 7.45455 122.871 7.86743 123.265 8.35228C123.659 8.82955 123.958 9.28031 124.162 9.70455H124.39V6.81818H128.446V24.5568C128.446 26.0492 128.09 27.2841 127.378 28.2613C126.666 29.2386 125.693 29.9697 124.458 30.4545C123.223 30.9394 121.821 31.1818 120.253 31.1818ZM120.287 20.7954C121.159 20.7954 121.901 20.5833 122.515 20.1591C123.128 19.7348 123.594 19.125 123.912 18.3295C124.231 17.5341 124.39 16.5795 124.39 15.4659C124.39 14.3674 124.231 13.4053 123.912 12.5795C123.602 11.7538 123.14 11.1136 122.526 10.6591C121.92 10.197 121.174 9.96591 120.287 9.96591C119.371 9.96591 118.606 10.2045 117.992 10.6818C117.378 11.1591 116.916 11.8144 116.606 12.6477C116.295 13.4735 116.14 14.4129 116.14 15.4659C116.14 16.5341 116.295 17.4697 116.606 18.2727C116.924 19.0682 117.39 19.6894 118.003 20.1363C118.625 20.5757 119.386 20.7954 120.287 20.7954ZM140.39 24.6136C138.64 24.6136 137.128 24.25 135.856 23.5227C134.59 22.7879 133.617 21.75 132.935 20.4091C132.253 19.0606 131.912 17.4735 131.912 15.6477C131.912 13.8522 132.253 12.2765 132.935 10.9204C133.625 9.55682 134.587 8.49621 135.821 7.73864C137.056 6.97349 138.507 6.59091 140.174 6.59091C141.25 6.59091 142.265 6.76515 143.219 7.11364C144.181 7.45455 145.03 7.98485 145.765 8.70455C146.507 9.42424 147.09 10.3409 147.515 11.4545C147.939 12.5606 148.151 13.8788 148.151 15.4091V16.6704H133.844V13.8977H144.208C144.2 13.1098 144.03 12.4091 143.696 11.7954C143.363 11.1742 142.897 10.6856 142.299 10.3295C141.708 9.97349 141.018 9.79546 140.231 9.79546C139.39 9.79546 138.651 10 138.015 10.4091C137.378 10.8106 136.882 11.3409 136.526 12C136.178 12.6515 136 13.3674 135.992 14.1477V16.5682C135.992 17.5833 136.178 18.4545 136.549 19.1818C136.92 19.9015 137.439 20.4545 138.106 20.8409C138.772 21.2197 139.553 21.4091 140.446 21.4091C141.045 21.4091 141.587 21.3257 142.071 21.1591C142.556 20.9848 142.977 20.731 143.333 20.3977C143.689 20.0644 143.958 19.6515 144.14 19.1591L147.981 19.5909C147.738 20.606 147.276 21.4924 146.594 22.25C145.92 23 145.056 23.5833 144.003 24C142.95 24.4091 141.746 24.6136 140.39 24.6136Z" fill="white"/>
<path d="M169.224 1.9253C170.84 0.309701 173.459 0.309705 175.075 1.92531V1.92531C176.69 3.54091 176.69 6.16032 175.075 7.77592L169.699 13.1514L163.849 7.3008L169.224 1.9253Z" fill="#F9432B"/>
<path fill-rule="evenodd" clip-rule="evenodd" d="M149.212 1.92531C150.827 0.309705 153.447 0.309701 155.062 1.9253L175.075 21.9377C176.69 23.5533 176.69 26.1727 175.075 27.7883C173.459 29.4039 170.84 29.4039 169.224 27.7883L162.143 20.7074L155.062 27.7883C153.447 29.4039 150.827 29.4039 149.212 27.7883C147.596 26.1727 147.596 23.5533 149.212 21.9377L156.293 14.8568L149.212 7.77592C147.596 6.16032 147.596 3.54091 149.212 1.92531Z" fill="white"/>
<path d="M162.216 20.7197C166.268 15.3996 163.724 10.564 161.945 8.81128C162.935 10.729 158.569 13.6571 156.262 14.8815L153.091 18.2065L158.465 24.3541L162.216 20.7197Z" fill="url(#paint0_linear_10_18805)" fill-opacity="0.8"/>
<path d="M150.965 20.217L153.787 17.2786L155.218 16.0027L161.404 21.4543L156.61 26.1712L150.965 20.217Z" fill="url(#paint1_linear_10_18805)"/>
</g>
<defs>
<linearGradient id="paint0_linear_10_18805" x1="163.453" y1="16.5827" x2="159.509" y2="13.0256" gradientUnits="userSpaceOnUse">
<stop stop-color="#D9D9D9"/>
<stop offset="1" stop-color="#D9D9D9" stop-opacity="0"/>
</linearGradient>
<linearGradient id="paint1_linear_10_18805" x1="155.488" y1="21.6862" x2="158.079" y2="18.7478" gradientUnits="userSpaceOnUse">
<stop stop-color="white"/>
<stop offset="1" stop-color="white" stop-opacity="0"/>
</linearGradient>
<clipPath id="clip0_10_18805">
<rect width="179" height="33" fill="white"/>
</clipPath>
</defs>
</svg>
