<svg width="182" height="31" viewBox="0 0 182 31" fill="none" xmlns="http://www.w3.org/2000/svg">
<g clip-path="url(#clip0_10_5959)">
<path d="M0 23.2727V0H4.21591V19.7386H14.4659V23.2727H0ZM22.9659 23.625C21.8598 23.625 20.8636 23.428 19.9772 23.0341C19.0984 22.6325 18.4015 22.0416 17.8863 21.2613C17.3787 20.481 17.125 19.5189 17.125 18.375C17.125 17.3901 17.3068 16.5757 17.6704 15.9318C18.034 15.2879 18.5303 14.7727 19.159 14.3863C19.7878 14 20.4962 13.7083 21.284 13.5113C22.0795 13.3068 22.9015 13.1591 23.75 13.0682C24.7727 12.9621 25.6022 12.8674 26.2386 12.7841C26.875 12.6932 27.3371 12.5568 27.625 12.375C27.9204 12.1856 28.0681 11.8939 28.0681 11.5V11.4318C28.0681 10.5757 27.8143 9.91293 27.3068 9.44323C26.7992 8.97349 26.0681 8.73864 25.1136 8.73864C24.106 8.73864 23.3068 8.95834 22.7159 9.39773C22.1325 9.83713 21.7386 10.356 21.534 10.9545L17.6931 10.4091C17.9962 9.34853 18.4962 8.46212 19.1931 7.75C19.8901 7.0303 20.7424 6.49243 21.75 6.13637C22.7575 5.77273 23.8712 5.59091 25.0909 5.59091C25.9318 5.59091 26.7689 5.6894 27.6022 5.88637C28.4356 6.08334 29.1969 6.40909 29.8863 6.86364C30.5757 7.31061 31.1287 7.92046 31.5454 8.69318C31.9697 9.46593 32.1818 10.4318 32.1818 11.5909V23.2727H28.2272V20.875H28.0909C27.8409 21.3598 27.4886 21.8144 27.034 22.2386C26.5871 22.6553 26.0227 22.9924 25.3409 23.25C24.6666 23.5 23.875 23.625 22.9659 23.625ZM24.034 20.6022C24.8598 20.6022 25.5757 20.4394 26.1818 20.1136C26.7878 19.7803 27.2537 19.3409 27.5795 18.7954C27.9128 18.25 28.0795 17.6553 28.0795 17.0113V14.9545C27.9507 15.0606 27.731 15.1591 27.4204 15.25C27.1174 15.3409 26.7765 15.4204 26.3977 15.4886C26.0189 15.5568 25.6439 15.6174 25.2727 15.6704C24.9015 15.7235 24.5795 15.7689 24.3068 15.8068C23.6931 15.8901 23.1439 16.0265 22.659 16.2159C22.1742 16.4053 21.7916 16.6704 21.5113 17.0113C21.231 17.3447 21.0909 17.7765 21.0909 18.3068C21.0909 19.0644 21.3674 19.6363 21.9204 20.0227C22.4734 20.4091 23.178 20.6022 24.034 20.6022ZM40.4318 13.0454V23.2727H36.3181V5.81818H40.25V8.78409H40.4545C40.856 7.80682 41.4962 7.03031 42.375 6.45455C43.2613 5.87879 44.356 5.59091 45.659 5.59091C46.8636 5.59091 47.9128 5.84849 48.8068 6.36364C49.7083 6.87879 50.4053 7.625 50.8977 8.60228C51.3977 9.57953 51.6439 10.7651 51.6363 12.1591V23.2727H47.5227V12.7954C47.5227 11.6288 47.2197 10.7159 46.6136 10.0568C46.0151 9.39773 45.1856 9.06818 44.125 9.06818C43.4053 9.06818 42.7651 9.22728 42.2045 9.54543C41.6515 9.85603 41.2159 10.3068 40.8977 10.8977C40.5871 11.4886 40.4318 12.2045 40.4318 13.0454ZM63.409 30.1818C61.9318 30.1818 60.6628 29.981 59.6022 29.5795C58.5416 29.1856 57.6893 28.6553 57.0454 27.9886C56.4015 27.3219 55.9545 26.5833 55.7045 25.7727L59.409 24.875C59.5757 25.2159 59.8181 25.553 60.1363 25.8863C60.4545 26.2272 60.8825 26.5075 61.4204 26.7272C61.9659 26.9545 62.6515 27.0682 63.4772 27.0682C64.6439 27.0682 65.6098 26.7841 66.375 26.2159C67.1401 25.6553 67.5227 24.731 67.5227 23.4432V20.1363H67.3181C67.106 20.5606 66.7954 20.9962 66.3863 21.4432C65.9848 21.8901 65.4507 22.2651 64.784 22.5682C64.125 22.8712 63.2954 23.0227 62.2954 23.0227C60.9545 23.0227 59.7386 22.7083 58.6477 22.0795C57.5643 21.4432 56.7007 20.4962 56.0568 19.2386C55.4204 17.9735 55.1022 16.3901 55.1022 14.4886C55.1022 12.5719 55.4204 10.9545 56.0568 9.63633C56.7007 8.31061 57.5681 7.30682 58.659 6.625C59.75 5.93561 60.9659 5.59091 62.3068 5.59091C63.3295 5.59091 64.1704 5.76515 64.8295 6.11364C65.4962 6.45455 66.0265 6.86743 66.4204 7.35228C66.8143 7.82955 67.1136 8.28031 67.3181 8.70455H67.5454V5.81818H71.6022V23.5568C71.6022 25.0492 71.2462 26.2841 70.534 27.2613C69.8219 28.2386 68.8484 28.9697 67.6136 29.4545C66.3787 29.9394 64.9772 30.1818 63.409 30.1818ZM63.4431 19.7954C64.3143 19.7954 65.0568 19.5833 65.6704 19.1591C66.284 18.7348 66.75 18.125 67.0681 17.3295C67.3863 16.5341 67.5454 15.5795 67.5454 14.4659C67.5454 13.3674 67.3863 12.4053 67.0681 11.5795C66.7575 10.7538 66.2954 10.1136 65.6818 9.65913C65.0757 9.19697 64.3295 8.96591 63.4431 8.96591C62.5265 8.96591 61.7613 9.20455 61.1477 9.68183C60.534 10.1591 60.0719 10.8144 59.7613 11.6477C59.4507 12.4735 59.2954 13.4129 59.2954 14.4659C59.2954 15.5341 59.4507 16.4697 59.7613 17.2727C60.0795 18.0682 60.5454 18.6894 61.159 19.1363C61.7803 19.5757 62.5416 19.7954 63.4431 19.7954ZM86.9431 15.9318V5.81818H91.0568V23.2727H87.0681V20.1704H86.8863C86.4924 21.1477 85.8447 21.9469 84.9431 22.5682C84.0492 23.1894 82.9469 23.5 81.6363 23.5C80.4924 23.5 79.481 23.2462 78.6022 22.7386C77.731 22.2235 77.0492 21.4772 76.5568 20.5C76.0643 19.5151 75.8181 18.3257 75.8181 16.9318V5.81818H79.9318V16.2954C79.9318 17.4015 80.2348 18.2803 80.8409 18.9318C81.4469 19.5833 82.2424 19.9091 83.2272 19.9091C83.8333 19.9091 84.4204 19.7613 84.9886 19.4659C85.5568 19.1704 86.0227 18.731 86.3863 18.1477C86.7575 17.5568 86.9431 16.8182 86.9431 15.9318ZM100.31 23.625C99.2036 23.625 98.2073 23.428 97.321 23.0341C96.4422 22.6325 95.7452 22.0416 95.2301 21.2613C94.7225 20.481 94.4687 19.5189 94.4687 18.375C94.4687 17.3901 94.6505 16.5757 95.0142 15.9318C95.3778 15.2879 95.874 14.7727 96.5028 14.3863C97.1316 14 97.8399 13.7083 98.6278 13.5113C99.4233 13.3068 100.246 13.1591 101.094 13.0682C102.117 12.9621 102.946 12.8674 103.583 12.7841C104.219 12.6932 104.681 12.5568 104.969 12.375C105.265 12.1856 105.412 11.8939 105.412 11.5V11.4318C105.412 10.5757 105.159 9.91293 104.651 9.44323C104.143 8.97349 103.412 8.73864 102.458 8.73864C101.45 8.73864 100.651 8.95834 100.06 9.39773C99.4763 9.83713 99.0823 10.356 98.8778 10.9545L95.0369 10.4091C95.3399 9.34853 95.8399 8.46212 96.5369 7.75C97.2339 7.0303 98.0861 6.49243 99.0937 6.13637C100.102 5.77273 101.215 5.59091 102.435 5.59091C103.276 5.59091 104.113 5.6894 104.946 5.88637C105.78 6.08334 106.541 6.40909 107.231 6.86364C107.92 7.31061 108.473 7.92046 108.89 8.69318C109.314 9.46593 109.526 10.4318 109.526 11.5909V23.2727H105.571V20.875H105.435C105.185 21.3598 104.833 21.8144 104.378 22.2386C103.931 22.6553 103.367 22.9924 102.685 23.25C102.011 23.5 101.219 23.625 100.31 23.625ZM101.378 20.6022C102.204 20.6022 102.92 20.4394 103.526 20.1136C104.132 19.7803 104.598 19.3409 104.924 18.7954C105.257 18.25 105.424 17.6553 105.424 17.0113V14.9545C105.295 15.0606 105.075 15.1591 104.765 15.25C104.462 15.3409 104.121 15.4204 103.742 15.4886C103.363 15.5568 102.988 15.6174 102.617 15.6704C102.246 15.7235 101.924 15.7689 101.651 15.8068C101.037 15.8901 100.488 16.0265 100.003 16.2159C99.5179 16.4053 99.1354 16.6704 98.8551 17.0113C98.5748 17.3447 98.4346 17.7765 98.4346 18.3068C98.4346 19.0644 98.7111 19.6363 99.2642 20.0227C99.8175 20.4091 100.522 20.6022 101.378 20.6022ZM121.253 30.1818C119.776 30.1818 118.507 29.981 117.446 29.5795C116.386 29.1856 115.534 28.6553 114.89 27.9886C114.246 27.3219 113.799 26.5833 113.549 25.7727L117.253 24.875C117.42 25.2159 117.662 25.553 117.981 25.8863C118.299 26.2272 118.727 26.5075 119.265 26.7272C119.81 26.9545 120.496 27.0682 121.321 27.0682C122.488 27.0682 123.454 26.7841 124.219 26.2159C124.984 25.6553 125.367 24.731 125.367 23.4432V20.1363H125.162C124.95 20.5606 124.64 20.9962 124.231 21.4432C123.829 21.8901 123.295 22.2651 122.628 22.5682C121.969 22.8712 121.14 23.0227 120.14 23.0227C118.799 23.0227 117.583 22.7083 116.492 22.0795C115.409 21.4432 114.545 20.4962 113.901 19.2386C113.265 17.9735 112.946 16.3901 112.946 14.4886C112.946 12.5719 113.265 10.9545 113.901 9.63633C114.545 8.31061 115.412 7.30682 116.503 6.625C117.594 5.93561 118.81 5.59091 120.151 5.59091C121.174 5.59091 122.015 5.76515 122.674 6.11364C123.34 6.45455 123.871 6.86743 124.265 7.35228C124.659 7.82955 124.958 8.28031 125.162 8.70455H125.39V5.81818H129.446V23.5568C129.446 25.0492 129.09 26.2841 128.378 27.2613C127.666 28.2386 126.693 28.9697 125.458 29.4545C124.223 29.9394 122.821 30.1818 121.253 30.1818ZM121.287 19.7954C122.159 19.7954 122.901 19.5833 123.515 19.1591C124.128 18.7348 124.594 18.125 124.912 17.3295C125.231 16.5341 125.39 15.5795 125.39 14.4659C125.39 13.3674 125.231 12.4053 124.912 11.5795C124.602 10.7538 124.14 10.1136 123.526 9.65913C122.92 9.19697 122.174 8.96591 121.287 8.96591C120.371 8.96591 119.606 9.20455 118.992 9.68183C118.378 10.1591 117.916 10.8144 117.606 11.6477C117.295 12.4735 117.14 13.4129 117.14 14.4659C117.14 15.5341 117.295 16.4697 117.606 17.2727C117.924 18.0682 118.39 18.6894 119.003 19.1363C119.625 19.5757 120.386 19.7954 121.287 19.7954ZM141.39 23.6136C139.64 23.6136 138.128 23.25 136.856 22.5227C135.59 21.7879 134.617 20.75 133.935 19.4091C133.253 18.0606 132.912 16.4735 132.912 14.6477C132.912 12.8522 133.253 11.2765 133.935 9.92043C134.625 8.55682 135.587 7.49621 136.821 6.73864C138.056 5.97349 139.507 5.59091 141.174 5.59091C142.25 5.59091 143.265 5.76515 144.219 6.11364C145.181 6.45455 146.03 6.98485 146.765 7.70455C147.507 8.42424 148.09 9.34093 148.515 10.4545C148.939 11.5606 149.151 12.8788 149.151 14.4091V15.6704H134.844V12.8977H145.208C145.2 12.1098 145.03 11.4091 144.696 10.7954C144.363 10.1742 143.897 9.68563 143.299 9.32953C142.708 8.97349 142.018 8.79546 141.231 8.79546C140.39 8.79546 139.651 9 139.015 9.40913C138.378 9.81063 137.882 10.3409 137.526 11C137.178 11.6515 137 12.3674 136.992 13.1477V15.5682C136.992 16.5833 137.178 17.4545 137.549 18.1818C137.92 18.9015 138.439 19.4545 139.106 19.8409C139.772 20.2197 140.553 20.4091 141.446 20.4091C142.045 20.4091 142.587 20.3257 143.071 20.1591C143.556 19.9848 143.977 19.731 144.333 19.3977C144.689 19.0644 144.958 18.6515 145.14 18.1591L148.981 18.5909C148.738 19.606 148.276 20.4924 147.594 21.25C146.92 22 146.056 22.5833 145.003 23C143.95 23.4091 142.746 23.6136 141.39 23.6136Z" fill="black"/>
<path d="M173.932 0L169.085 5.10432L164.241 10.2064L169.085 15.3107L173.932 10.2064L178.776 5.10432L173.932 0Z" fill="#0037FF"/>
<path d="M159.395 15.3113L154.551 20.4134L149.705 25.5178L154.551 30.6199L159.395 25.5178L164.241 20.4134L159.395 15.3113Z" fill="#0037FF"/>
<path d="M173.932 20.4134L169.085 15.3113L164.241 20.4134L169.085 25.5178L173.932 30.6199L178.776 25.5178L173.932 20.4134Z" fill="#0037FF"/>
<path d="M159.395 5.10432L154.551 0L149.705 5.10432L154.551 10.2064L159.395 15.3107L164.241 10.2064L159.395 5.10432Z" fill="#0037FF"/>
<path d="M0 23.2727V0H4.21591V19.7386H14.4659V23.2727H0ZM22.9659 23.625C21.8598 23.625 20.8636 23.428 19.9772 23.0341C19.0984 22.6325 18.4015 22.0416 17.8863 21.2613C17.3787 20.481 17.125 19.5189 17.125 18.375C17.125 17.3901 17.3068 16.5757 17.6704 15.9318C18.034 15.2879 18.5303 14.7727 19.159 14.3863C19.7878 14 20.4962 13.7083 21.284 13.5113C22.0795 13.3068 22.9015 13.1591 23.75 13.0682C24.7727 12.9621 25.6022 12.8674 26.2386 12.7841C26.875 12.6932 27.3371 12.5568 27.625 12.375C27.9204 12.1856 28.0681 11.8939 28.0681 11.5V11.4318C28.0681 10.5757 27.8143 9.91293 27.3068 9.44323C26.7992 8.97349 26.0681 8.73864 25.1136 8.73864C24.106 8.73864 23.3068 8.95834 22.7159 9.39773C22.1325 9.83713 21.7386 10.356 21.534 10.9545L17.6931 10.4091C17.9962 9.34853 18.4962 8.46212 19.1931 7.75C19.8901 7.0303 20.7424 6.49243 21.75 6.13637C22.7575 5.77273 23.8712 5.59091 25.0909 5.59091C25.9318 5.59091 26.7689 5.6894 27.6022 5.88637C28.4356 6.08334 29.1969 6.40909 29.8863 6.86364C30.5757 7.31061 31.1287 7.92046 31.5454 8.69318C31.9697 9.46593 32.1818 10.4318 32.1818 11.5909V23.2727H28.2272V20.875H28.0909C27.8409 21.3598 27.4886 21.8144 27.034 22.2386C26.5871 22.6553 26.0227 22.9924 25.3409 23.25C24.6666 23.5 23.875 23.625 22.9659 23.625ZM24.034 20.6022C24.8598 20.6022 25.5757 20.4394 26.1818 20.1136C26.7878 19.7803 27.2537 19.3409 27.5795 18.7954C27.9128 18.25 28.0795 17.6553 28.0795 17.0113V14.9545C27.9507 15.0606 27.731 15.1591 27.4204 15.25C27.1174 15.3409 26.7765 15.4204 26.3977 15.4886C26.0189 15.5568 25.6439 15.6174 25.2727 15.6704C24.9015 15.7235 24.5795 15.7689 24.3068 15.8068C23.6931 15.8901 23.1439 16.0265 22.659 16.2159C22.1742 16.4053 21.7916 16.6704 21.5113 17.0113C21.231 17.3447 21.0909 17.7765 21.0909 18.3068C21.0909 19.0644 21.3674 19.6363 21.9204 20.0227C22.4734 20.4091 23.178 20.6022 24.034 20.6022ZM40.4318 13.0454V23.2727H36.3181V5.81818H40.25V8.78409H40.4545C40.856 7.80682 41.4962 7.03031 42.375 6.45455C43.2613 5.87879 44.356 5.59091 45.659 5.59091C46.8636 5.59091 47.9128 5.84849 48.8068 6.36364C49.7083 6.87879 50.4053 7.625 50.8977 8.60228C51.3977 9.57953 51.6439 10.7651 51.6363 12.1591V23.2727H47.5227V12.7954C47.5227 11.6288 47.2197 10.7159 46.6136 10.0568C46.0151 9.39773 45.1856 9.06818 44.125 9.06818C43.4053 9.06818 42.7651 9.22728 42.2045 9.54543C41.6515 9.85603 41.2159 10.3068 40.8977 10.8977C40.5871 11.4886 40.4318 12.2045 40.4318 13.0454ZM63.409 30.1818C61.9318 30.1818 60.6628 29.981 59.6022 29.5795C58.5416 29.1856 57.6893 28.6553 57.0454 27.9886C56.4015 27.3219 55.9545 26.5833 55.7045 25.7727L59.409 24.875C59.5757 25.2159 59.8181 25.553 60.1363 25.8863C60.4545 26.2272 60.8825 26.5075 61.4204 26.7272C61.9659 26.9545 62.6515 27.0682 63.4772 27.0682C64.6439 27.0682 65.6098 26.7841 66.375 26.2159C67.1401 25.6553 67.5227 24.731 67.5227 23.4432V20.1363H67.3181C67.106 20.5606 66.7954 20.9962 66.3863 21.4432C65.9848 21.8901 65.4507 22.2651 64.784 22.5682C64.125 22.8712 63.2954 23.0227 62.2954 23.0227C60.9545 23.0227 59.7386 22.7083 58.6477 22.0795C57.5643 21.4432 56.7007 20.4962 56.0568 19.2386C55.4204 17.9735 55.1022 16.3901 55.1022 14.4886C55.1022 12.5719 55.4204 10.9545 56.0568 9.63633C56.7007 8.31061 57.5681 7.30682 58.659 6.625C59.75 5.93561 60.9659 5.59091 62.3068 5.59091C63.3295 5.59091 64.1704 5.76515 64.8295 6.11364C65.4962 6.45455 66.0265 6.86743 66.4204 7.35228C66.8143 7.82955 67.1136 8.28031 67.3181 8.70455H67.5454V5.81818H71.6022V23.5568C71.6022 25.0492 71.2462 26.2841 70.534 27.2613C69.8219 28.2386 68.8484 28.9697 67.6136 29.4545C66.3787 29.9394 64.9772 30.1818 63.409 30.1818ZM63.4431 19.7954C64.3143 19.7954 65.0568 19.5833 65.6704 19.1591C66.284 18.7348 66.75 18.125 67.0681 17.3295C67.3863 16.5341 67.5454 15.5795 67.5454 14.4659C67.5454 13.3674 67.3863 12.4053 67.0681 11.5795C66.7575 10.7538 66.2954 10.1136 65.6818 9.65913C65.0757 9.19697 64.3295 8.96591 63.4431 8.96591C62.5265 8.96591 61.7613 9.20455 61.1477 9.68183C60.534 10.1591 60.0719 10.8144 59.7613 11.6477C59.4507 12.4735 59.2954 13.4129 59.2954 14.4659C59.2954 15.5341 59.4507 16.4697 59.7613 17.2727C60.0795 18.0682 60.5454 18.6894 61.159 19.1363C61.7803 19.5757 62.5416 19.7954 63.4431 19.7954ZM86.9431 15.9318V5.81818H91.0568V23.2727H87.0681V20.1704H86.8863C86.4924 21.1477 85.8447 21.9469 84.9431 22.5682C84.0492 23.1894 82.9469 23.5 81.6363 23.5C80.4924 23.5 79.481 23.2462 78.6022 22.7386C77.731 22.2235 77.0492 21.4772 76.5568 20.5C76.0643 19.5151 75.8181 18.3257 75.8181 16.9318V5.81818H79.9318V16.2954C79.9318 17.4015 80.2348 18.2803 80.8409 18.9318C81.4469 19.5833 82.2424 19.9091 83.2272 19.9091C83.8333 19.9091 84.4204 19.7613 84.9886 19.4659C85.5568 19.1704 86.0227 18.731 86.3863 18.1477C86.7575 17.5568 86.9431 16.8182 86.9431 15.9318ZM100.31 23.625C99.2036 23.625 98.2073 23.428 97.321 23.0341C96.4422 22.6325 95.7452 22.0416 95.2301 21.2613C94.7225 20.481 94.4687 19.5189 94.4687 18.375C94.4687 17.3901 94.6505 16.5757 95.0142 15.9318C95.3778 15.2879 95.874 14.7727 96.5028 14.3863C97.1316 14 97.8399 13.7083 98.6278 13.5113C99.4233 13.3068 100.246 13.1591 101.094 13.0682C102.117 12.9621 102.946 12.8674 103.583 12.7841C104.219 12.6932 104.681 12.5568 104.969 12.375C105.265 12.1856 105.412 11.8939 105.412 11.5V11.4318C105.412 10.5757 105.159 9.91293 104.651 9.44323C104.143 8.97349 103.412 8.73864 102.458 8.73864C101.45 8.73864 100.651 8.95834 100.06 9.39773C99.4763 9.83713 99.0823 10.356 98.8778 10.9545L95.0369 10.4091C95.3399 9.34853 95.8399 8.46212 96.5369 7.75C97.2339 7.0303 98.0861 6.49243 99.0937 6.13637C100.102 5.77273 101.215 5.59091 102.435 5.59091C103.276 5.59091 104.113 5.6894 104.946 5.88637C105.78 6.08334 106.541 6.40909 107.231 6.86364C107.92 7.31061 108.473 7.92046 108.89 8.69318C109.314 9.46593 109.526 10.4318 109.526 11.5909V23.2727H105.571V20.875H105.435C105.185 21.3598 104.833 21.8144 104.378 22.2386C103.931 22.6553 103.367 22.9924 102.685 23.25C102.011 23.5 101.219 23.625 100.31 23.625ZM101.378 20.6022C102.204 20.6022 102.92 20.4394 103.526 20.1136C104.132 19.7803 104.598 19.3409 104.924 18.7954C105.257 18.25 105.424 17.6553 105.424 17.0113V14.9545C105.295 15.0606 105.075 15.1591 104.765 15.25C104.462 15.3409 104.121 15.4204 103.742 15.4886C103.363 15.5568 102.988 15.6174 102.617 15.6704C102.246 15.7235 101.924 15.7689 101.651 15.8068C101.037 15.8901 100.488 16.0265 100.003 16.2159C99.5179 16.4053 99.1354 16.6704 98.8551 17.0113C98.5748 17.3447 98.4346 17.7765 98.4346 18.3068C98.4346 19.0644 98.7111 19.6363 99.2642 20.0227C99.8175 20.4091 100.522 20.6022 101.378 20.6022ZM121.253 30.1818C119.776 30.1818 118.507 29.981 117.446 29.5795C116.386 29.1856 115.534 28.6553 114.89 27.9886C114.246 27.3219 113.799 26.5833 113.549 25.7727L117.253 24.875C117.42 25.2159 117.662 25.553 117.981 25.8863C118.299 26.2272 118.727 26.5075 119.265 26.7272C119.81 26.9545 120.496 27.0682 121.321 27.0682C122.488 27.0682 123.454 26.7841 124.219 26.2159C124.984 25.6553 125.367 24.731 125.367 23.4432V20.1363H125.162C124.95 20.5606 124.64 20.9962 124.231 21.4432C123.829 21.8901 123.295 22.2651 122.628 22.5682C121.969 22.8712 121.14 23.0227 120.14 23.0227C118.799 23.0227 117.583 22.7083 116.492 22.0795C115.409 21.4432 114.545 20.4962 113.901 19.2386C113.265 17.9735 112.946 16.3901 112.946 14.4886C112.946 12.5719 113.265 10.9545 113.901 9.63633C114.545 8.31061 115.412 7.30682 116.503 6.625C117.594 5.93561 118.81 5.59091 120.151 5.59091C121.174 5.59091 122.015 5.76515 122.674 6.11364C123.34 6.45455 123.871 6.86743 124.265 7.35228C124.659 7.82955 124.958 8.28031 125.162 8.70455H125.39V5.81818H129.446V23.5568C129.446 25.0492 129.09 26.2841 128.378 27.2613C127.666 28.2386 126.693 28.9697 125.458 29.4545C124.223 29.9394 122.821 30.1818 121.253 30.1818ZM121.287 19.7954C122.159 19.7954 122.901 19.5833 123.515 19.1591C124.128 18.7348 124.594 18.125 124.912 17.3295C125.231 16.5341 125.39 15.5795 125.39 14.4659C125.39 13.3674 125.231 12.4053 124.912 11.5795C124.602 10.7538 124.14 10.1136 123.526 9.65913C122.92 9.19697 122.174 8.96591 121.287 8.96591C120.371 8.96591 119.606 9.20455 118.992 9.68183C118.378 10.1591 117.916 10.8144 117.606 11.6477C117.295 12.4735 117.14 13.4129 117.14 14.4659C117.14 15.5341 117.295 16.4697 117.606 17.2727C117.924 18.0682 118.39 18.6894 119.003 19.1363C119.625 19.5757 120.386 19.7954 121.287 19.7954ZM141.39 23.6136C139.64 23.6136 138.128 23.25 136.856 22.5227C135.59 21.7879 134.617 20.75 133.935 19.4091C133.253 18.0606 132.912 16.4735 132.912 14.6477C132.912 12.8522 133.253 11.2765 133.935 9.92043C134.625 8.55682 135.587 7.49621 136.821 6.73864C138.056 5.97349 139.507 5.59091 141.174 5.59091C142.25 5.59091 143.265 5.76515 144.219 6.11364C145.181 6.45455 146.03 6.98485 146.765 7.70455C147.507 8.42424 148.09 9.34093 148.515 10.4545C148.939 11.5606 149.151 12.8788 149.151 14.4091V15.6704H134.844V12.8977H145.208C145.2 12.1098 145.03 11.4091 144.696 10.7954C144.363 10.1742 143.897 9.68563 143.299 9.32953C142.708 8.97349 142.018 8.79546 141.231 8.79546C140.39 8.79546 139.651 9 139.015 9.40913C138.378 9.81063 137.882 10.3409 137.526 11C137.178 11.6515 137 12.3674 136.992 13.1477V15.5682C136.992 16.5833 137.178 17.4545 137.549 18.1818C137.92 18.9015 138.439 19.4545 139.106 19.8409C139.772 20.2197 140.553 20.4091 141.446 20.4091C142.045 20.4091 142.587 20.3257 143.071 20.1591C143.556 19.9848 143.977 19.731 144.333 19.3977C144.689 19.0644 144.958 18.6515 145.14 18.1591L148.981 18.5909C148.738 19.606 148.276 20.4924 147.594 21.25C146.92 22 146.056 22.5833 145.003 23C143.95 23.4091 142.746 23.6136 141.39 23.6136Z" fill="black"/>
<path d="M176.227 0L171.381 5.10432L166.537 10.2064L171.381 15.3107L176.227 10.2064L181.071 5.10432L176.227 0Z" fill="#FDA29B"/>
<path d="M161.69 15.3113L156.846 20.4134L152 25.5178L156.846 30.6199L161.69 25.5178L166.536 20.4134L161.69 15.3113Z" fill="#FDA29B"/>
<path d="M176.227 20.4134L171.381 15.3113L166.537 20.4134L171.381 25.5178L176.227 30.6199L181.071 25.5178L176.227 20.4134Z" fill="#FDA29B"/>
<path d="M161.69 5.10432L156.846 0L152 5.10432L156.846 10.2064L161.69 15.3107L166.536 10.2064L161.69 5.10432Z" fill="#FDA29B"/>
</g>
<defs>
<clipPath id="clip0_10_5959">
<rect width="182" height="31" fill="white"/>
</clipPath>
</defs>
</svg>
