<svg width="25" height="25" viewBox="0 0 25 25" fill="none" xmlns="http://www.w3.org/2000/svg">
<path opacity="0.12" d="M3.125 8.3C3.125 6.61984 3.125 5.77976 3.45198 5.13803C3.7396 4.57354 4.19854 4.1146 4.76303 3.82698C5.40476 3.5 6.24484 3.5 7.925 3.5H16.325C18.0052 3.5 18.8452 3.5 19.487 3.82698C20.0515 4.1146 20.5104 4.57354 20.798 5.13803C21.125 5.77976 21.125 6.61984 21.125 8.3V16.7C21.125 18.3802 21.125 19.2202 20.798 19.862C20.5104 20.4265 20.0515 20.8854 19.487 21.173C18.8452 21.5 18.0052 21.5 16.325 21.5H7.925C6.24484 21.5 5.40476 21.5 4.76303 21.173C4.19854 20.8854 3.7396 20.4265 3.45198 19.862C3.125 19.2202 3.125 18.3802 3.125 16.7V8.3Z" fill="#0037FF"/>
<path d="M17.125 9.5L11.6907 14.9343C11.4927 15.1323 11.3937 15.2313 11.2795 15.2684C11.1791 15.3011 11.0709 15.3011 10.9705 15.2684C10.8563 15.2313 10.7573 15.1323 10.5593 14.9343L8.69069 13.0657C8.49268 12.8677 8.39367 12.7687 8.27951 12.7316C8.17909 12.6989 8.07091 12.6989 7.97049 12.7316C7.85633 12.7687 7.75732 12.8677 7.55931 13.0657L3.125 17.5M17.125 9.5H13.125M17.125 9.5V13.5M7.925 21.5H16.325C18.0052 21.5 18.8452 21.5 19.487 21.173C20.0515 20.8854 20.5104 20.4265 20.798 19.862C21.125 19.2202 21.125 18.3802 21.125 16.7V8.3C21.125 6.61984 21.125 5.77976 20.798 5.13803C20.5104 4.57354 20.0515 4.1146 19.487 3.82698C18.8452 3.5 18.0052 3.5 16.325 3.5H7.925C6.24484 3.5 5.40476 3.5 4.76303 3.82698C4.19854 4.1146 3.7396 4.57354 3.45198 5.13803C3.125 5.77976 3.125 6.61984 3.125 8.3V16.7C3.125 18.3802 3.125 19.2202 3.45198 19.862C3.7396 20.4265 4.19854 20.8854 4.76303 21.173C5.40476 21.5 6.24484 21.5 7.925 21.5Z" stroke="#F9432B" stroke-width="2" stroke-linecap="round" stroke-linejoin="round"/>
</svg>
