<svg width="25" height="25" viewBox="0 0 25 25" fill="none" xmlns="http://www.w3.org/2000/svg">
<path d="M21.625 10.5H3.625M16.625 2.5V6.5M8.625 2.5V6.5M11.125 14.5L12.625 13.5V18.5M11.375 18.5H13.875M8.425 22.5H16.825C18.5052 22.5 19.3452 22.5 19.987 22.173C20.5515 21.8854 21.0104 21.4265 21.298 20.862C21.625 20.2202 21.625 19.3802 21.625 17.7V9.3C21.625 7.61984 21.625 6.77976 21.298 6.13803C21.0104 5.57354 20.5515 5.1146 19.987 4.82698C19.3452 4.5 18.5052 4.5 16.825 4.5H8.425C6.74484 4.5 5.90476 4.5 5.26303 4.82698C4.69854 5.1146 4.2396 5.57354 3.95198 6.13803C3.625 6.77976 3.625 7.61984 3.625 9.3V17.7C3.625 19.3802 3.625 20.2202 3.95198 20.862C4.2396 21.4265 4.69854 21.8854 5.26303 22.173C5.90476 22.5 6.74484 22.5 8.425 22.5Z" stroke="#98A2B3" stroke-width="2" stroke-linecap="round" stroke-linejoin="round"/>
</svg>
