<svg width="25" height="25" viewBox="0 0 25 25" fill="none" xmlns="http://www.w3.org/2000/svg">
<path opacity="0.12" d="M3.375 11.0648C3.375 10.4905 3.375 10.2033 3.44903 9.93881C3.5146 9.70454 3.62237 9.4842 3.76703 9.28861C3.93034 9.06781 4.15702 8.8915 4.61039 8.53888L11.3927 3.26375C11.744 2.9905 11.9197 2.85388 12.1137 2.80136C12.2848 2.75502 12.4652 2.75502 12.6363 2.80136C12.8303 2.85388 13.006 2.9905 13.3573 3.26376L20.1396 8.53888C20.593 8.8915 20.8197 9.06781 20.983 9.28861C21.1276 9.4842 21.2354 9.70454 21.301 9.93881C21.375 10.2033 21.375 10.4905 21.375 11.0648V18.2997C21.375 19.4198 21.375 19.9799 21.157 20.4077C20.9653 20.784 20.6593 21.09 20.283 21.2818C19.8552 21.4997 19.2951 21.4997 18.175 21.4997H6.575C5.4549 21.4997 4.89484 21.4997 4.46702 21.2818C4.09069 21.09 3.78473 20.784 3.59299 20.4077C3.375 19.9799 3.375 19.4198 3.375 18.2997V11.0648Z" fill="#0037FF"/>
<path d="M8.375 17.4997H16.375M11.3927 3.26375L4.61039 8.53888C4.15702 8.8915 3.93034 9.06781 3.76703 9.28861C3.62237 9.4842 3.5146 9.70454 3.44903 9.93881C3.375 10.2033 3.375 10.4905 3.375 11.0648V18.2997C3.375 19.4198 3.375 19.9799 3.59299 20.4077C3.78473 20.784 4.09069 21.09 4.46702 21.2818C4.89484 21.4997 5.45489 21.4997 6.575 21.4997H18.175C19.2951 21.4997 19.8552 21.4997 20.283 21.2818C20.6593 21.09 20.9653 20.784 21.157 20.4077C21.375 19.9799 21.375 19.4198 21.375 18.2997V11.0648C21.375 10.4905 21.375 10.2033 21.301 9.93881C21.2354 9.70454 21.1276 9.4842 20.983 9.28861C20.8197 9.06781 20.593 8.8915 20.1396 8.53888L13.3573 3.26376C13.006 2.9905 12.8303 2.85388 12.6363 2.80136C12.4652 2.75502 12.2848 2.75502 12.1137 2.80136C11.9197 2.85388 11.744 2.9905 11.3927 3.26375Z" stroke="#F9432B" stroke-width="2" stroke-linecap="round" stroke-linejoin="round"/>
</svg>
