<svg width="25" height="25" viewBox="0 0 25 25" fill="none" xmlns="http://www.w3.org/2000/svg">
<path opacity="0.12" d="M5.0625 20.8746V3.87464L15.1672 3.75203C15.3432 3.73238 15.5371 3.7108 15.75 3.68714C19.35 3.28714 20.625 4.9788 20.8125 5.87464L20.5625 20.9996L18 19.2496L15.625 21.3746L12.9375 19.4371L9.9375 20.8746L7.1875 19.2496L5.0625 20.8746Z" fill="#0037FF"/>
<path d="M4.875 8.3C4.875 6.61984 4.875 5.77976 5.20198 5.13803C5.4896 4.57354 5.94854 4.1146 6.51303 3.82698C7.15476 3.5 7.99484 3.5 9.675 3.5H16.075C17.7552 3.5 18.5952 3.5 19.237 3.82698C19.8015 4.1146 20.2604 4.57354 20.548 5.13803C20.875 5.77976 20.875 6.61984 20.875 8.3V21.5L18.125 19.5L15.625 21.5L12.875 19.5L10.125 21.5L7.625 19.5L4.875 21.5V8.3Z" stroke="#0037FF" stroke-width="2" stroke-linecap="round" stroke-linejoin="round"/>
</svg>
